# xmcd
#
# Track frame offsets:
#	150
#	17325
#	35550
#	61650
#	77100
#	94500
#	97725
#	105825
#	113400
#	119325
#	122850
#	129600
#	133125
#	143325
#	155550
#	157725
#	172425
#	183600
#	203400
#	224175
#	252075
#	274350
#
# Disc length: 3918 seconds
#
# Revision: 1
# Processed by: cddbd v1.5.1PL0 Copyright (c) Steve Scherf et al.
# Submitted via: CDex 1.50Beta5
#
DISCID=290f4c16
DTITLE=エンジェル隊 - ギャラクシーエンジェル すぺしゃるし〜でぃ〜♪
DYEAR=2001
DGENRE=Anime
TTITLE0=はなまる◎ワンダフル
TTITLE1=スペシャルドラマ その1「ア・ブ・ナ・イ過去への旅」
TTITLE2=スペシャルドラマ その1「ア・ブ・ナ・イ過去への旅」
TTITLE3=スペシャルドラマ その1「ア・ブ・ナ・イ過去への旅」
TTITLE4=スペシャルドラマ その1「ア・ブ・ナ・イ過去への旅」
TTITLE5=スペシャルドラマ その1「ア・ブ・ナ・イ過去への旅」
TTITLE6=スペシャルドラマ その1「ア・ブ・ナ・イ過去への旅」
TTITLE7=スペシャルドラマ その1「ア・ブ・ナ・イ過去への旅」
TTITLE8=スペシャルドラマ その1「ア・ブ・ナ・イ過去への旅」
TTITLE9=スペシャルドラマ その1「ア・ブ・ナ・イ過去への旅」
TTITLE10=スペシャルドラマ その1「ア・ブ・ナ・イ過去への旅」
TTITLE11=スペシャルドラマ その1「ア・ブ・ナ・イ過去への旅」
TTITLE12=スペシャルドラマ その1「ア・ブ・ナ・イ過去への旅」
TTITLE13=スペシャルドラマ その1「ア・ブ・ナ・イ過去への旅」
TTITLE14=スペシャルドラマ その1「ア・ブ・ナ・イ過去への旅」
TTITLE15=スペシャルドラマ その1「ア・ブ・ナ・イ過去への旅」
TTITLE16=スペシャルドラマ その1「ア・ブ・ナ・イ過去への旅」
TTITLE17=100%LOVE
TTITLE18=スペシャルドラマ その2
TTITLE19=スペシャルドラマ その2
TTITLE20=スペシャルドラマ その2
TTITLE21=あしたのタマゴ
EXTD=非売品(DVD2.3応募者全員プレゼント)
EXTT0=
EXTT1=
EXTT2=
EXTT3=
EXTT4=
EXTT5=
EXTT6=
EXTT7=
EXTT8=
EXTT9=
EXTT10=
EXTT11=
EXTT12=
EXTT13=
EXTT14=
EXTT15=
EXTT16=
EXTT17=
EXTT18=
EXTT19=
EXTT20=
EXTT21=
PLAYORDER=
